<svg xmlns="http://www.w3.org/2000/svg" viewBox="0 0 20.94 29.15"><defs><style>.cls-1{fill:#00b4e0;}</style></defs><title>importar</title><g id="Capa_2" data-name="Capa 2"><g id="Capa_1-2" data-name="Capa 1"><path class="cls-1" d="M20.88,9.68c-.48-1.8-4.09-3.56-10.41-3.56S.55,7.88.06,9.68a.41.41,0,0,0-.06.2v15.5a.39.39,0,0,0,0,.19C.54,27.62,5,29.15,10.47,29.15s9.91-1.52,10.42-3.57a.4.4,0,0,0,.05-.2V9.89a.41.41,0,0,0-.06-.2Zm-.81,10.67a1.16,1.16,0,0,1,0,.15l-.06.12-.1.16-.09.12-.15.16-.11.1-.22.18-.11.08-.3.19-.09.05-.4.21-.06,0-.49.22h0a16.28,16.28,0,0,1-3.59.91h0l-.85.11h-.14l-.77.07-.37,0-.6,0-1,0-1,0-.6,0-.37,0-.77-.07H7.56L6.72,23h0a16.29,16.29,0,0,1-3.59-.91h0l-.5-.22-.06,0-.39-.21-.09,0-.3-.19-.11-.08-.22-.18-.11-.1-.15-.16-.09-.12L1,20.63.92,20.5a1,1,0,0,1,0-.15.88.88,0,0,1,0-.2.81.81,0,0,1,0-.14.45.45,0,0,0,0-.19V16.71l0,0,.29.24c1.58,1.19,4.73,2.12,9.3,2.12s7.7-.92,9.28-2.11a3.63,3.63,0,0,0,.35-.28v3.11a.45.45,0,0,0,0,.19.81.81,0,0,1,0,.14.88.88,0,0,1,0,.2Zm0-8.67v3.11a.44.44,0,0,0,0,.19.8.8,0,0,1,0,.14.91.91,0,0,1,0,.2,1.24,1.24,0,0,1,0,.15L20,15.6l-.1.15-.09.12-.15.16-.11.1-.22.18-.11.08-.3.19-.09,0-.4.21-.06,0-.49.22h0a16.26,16.26,0,0,1-3.59.91h0l-.85.11h-.14l-.77.07-.37,0-.6,0-1,0-1,0-.6,0-.37,0-.77-.07H7.56L6.72,18h0a16.15,16.15,0,0,1-3.59-.91h0l-.5-.22-.06,0-.39-.21-.09-.05-.3-.19-.11-.08-.22-.18L1.32,16l-.15-.17-.09-.11L1,15.6l-.06-.12a.88.88,0,0,1,0-.15.88.88,0,0,1,0-.2.8.8,0,0,1,0-.14.44.44,0,0,0,0-.19V11.68l.16.14.09.08c.12.1.26.2.41.29l.1.06.39.23.15.08.48.23.08,0,.62.24.18.06.54.17.2.06.76.19.11,0,.73.14.26,0,.73.11.19,0L8,14l.25,0,.81,0h.3l1.11,0,1.11,0h.3l.81,0,.25,0,1-.1.19,0,.73-.11.26,0,.73-.14.11,0,.76-.19.2-.06.54-.17.18-.06.62-.24.08,0,.48-.23.15-.08.39-.23.1-.06c.15-.09.28-.19.41-.29l.09-.08.16-.14ZM10.47,7c5.68,0,9.63,1.65,9.63,3.14s-4,3.14-9.63,3.14S.84,11.58.84,10.1,4.79,7,10.47,7Zm9.63,18.3s0,0,0,.06c-.24,1.45-4.16,3-9.62,3s-9.38-1.55-9.62-3a.47.47,0,0,0,0-.06V21.74l0,0,.29.24c1.58,1.19,4.73,2.12,9.3,2.12s7.7-.92,9.28-2.1a4.08,4.08,0,0,0,.35-.28Zm0,0"/><path class="cls-1" d="M8.71,6a.61.61,0,0,0-.5,1L11.07,11A.54.54,0,0,0,12,11l2.82-4.11a.61.61,0,0,0-.5-.95h-1A6.12,6.12,0,0,0,7.19,0H7.13a.52.52,0,0,0-.27,1A6.11,6.11,0,0,1,9.68,6Zm1,0"/></g></g></svg>