<svg xmlns="http://www.w3.org/2000/svg" viewBox="0 0 85.49 31.53"><defs><style>.cls-1{fill:#048aa0;}.cls-2{fill:#00b4e0;}</style></defs><title>logo cms</title><g id="Capa_2" data-name="Capa 2"><g id="Capa_1-2" data-name="Capa 1"><path class="cls-1" d="M30.57,1.63l1,3.26q1.16,3.86,2.32,7.72a.87.87,0,0,1,0,.58c-1,2.92-2.05,5.83-3,8.76a13.37,13.37,0,0,1-4,5.69,15.49,15.49,0,0,1-5.43,3.18,17.61,17.61,0,0,1-7,.63,13.76,13.76,0,0,1-5.69-1.67A15.72,15.72,0,0,1,.54,19.24a3.37,3.37,0,0,1,.33-2.59,16.88,16.88,0,0,1,9.25-8.07l.48-.16c.1,0,.21-.07.27,0s-.06.18-.14.24A8.32,8.32,0,0,0,9.36,9.89,9,9,0,0,0,7.28,14a8.94,8.94,0,0,0,4.35,9.59,9.47,9.47,0,0,0,5.47,1.06,8.47,8.47,0,0,0,6.83-4.38,13.66,13.66,0,0,0,1-2.61c.75-2.1,1.47-4.2,2.2-6.3.67-1.95,1.31-3.9,2-5.84q.6-1.67,1.14-3.36A1,1,0,0,1,30.57,1.63Z"/><path class="cls-1" d="M78,24.46c0-.23.16-.32.26-.45a3.07,3.07,0,0,0,.61-2.34,2.55,2.55,0,0,0-1.66-2.18,24.38,24.38,0,0,0-4-1.05A38.83,38.83,0,0,1,67.9,16.9a10.07,10.07,0,0,1-4.28-2.69,7,7,0,0,1-1.32-2.43,1,1,0,0,1,.13-.78A8.69,8.69,0,0,1,66,7.15a15.86,15.86,0,0,1,4.63-1.72.85.85,0,0,1,.25,0,1.22,1.22,0,0,1,.22.07c-.46.22-.86.4-1.25.61a3.06,3.06,0,0,0-1.45,3.69A2.06,2.06,0,0,0,69.58,11a16.89,16.89,0,0,0,3.23,1.15c1.26.3,2.52.66,3.8.84a14.67,14.67,0,0,1,4.57,1.39,7.71,7.71,0,0,1,4.07,4.75A1,1,0,0,1,85,20.28a19.27,19.27,0,0,1-6.42,4.07l-.38.13S78.12,24.47,78,24.46Z"/><path class="cls-1" d="M52.83,12.59c-.16.58-.31,1.14-.47,1.69l-2.77,9.3L48,29c0,.1-.06.19-.09.29s-.07.25-.22.24-.12-.14-.15-.24l-1.81-6.12q-.75-2.53-1.5-5a1.4,1.4,0,0,1,0-.84c1.22-4.18,2.43-8.37,3.66-12.54.29-1,.62-1.93.87-2.91,0-.11,0-.27.18-.25s.17.15.21.26l1,2.92,2.58,7.47C52.76,12.33,52.8,12.47,52.83,12.59Z"/><path class="cls-2" d="M53,0C54,0,55,0,56.07,0a.63.63,0,0,1,.7.49c.81,2.24,1.58,4.49,2.34,6.74s1.66,4.79,2.48,7.18c.65,1.9,1.29,3.8,2,5.69A7.84,7.84,0,0,0,69,25.16a17,17,0,0,0,5.86.53,14.35,14.35,0,0,0,5.77-1.57,18.91,18.91,0,0,0,4.36-3c.11-.1.2-.26.38-.17s.09.24.09.37a8.49,8.49,0,0,1-3.31,7.31,11.91,11.91,0,0,1-3.44,1.79,17.09,17.09,0,0,1-4.76.83,25.54,25.54,0,0,1-6.5-.45,14.61,14.61,0,0,1-5.87-2.61A13.13,13.13,0,0,1,57,22.53c-.66-1.66-1.17-3.38-1.75-5.07-.85-2.46-1.67-4.92-2.55-7.37-.71-2-1.32-4-2-5.94-.44-1.21-.81-2.43-1.26-3.64-.15-.4,0-.51.37-.51C50.84,0,51.91,0,53,0Z"/><path class="cls-2" d="M43.67,30.94c-1,0-2.1,0-3.15,0a.55.55,0,0,1-.61-.47C39,27.25,38,24,37,20.78c-.59-2.06-1.26-4.09-1.84-6.15-.65-2.3-1.43-4.57-2.12-6.87S31.65,3,31,.67c-.18-.62-.13-.67.51-.67,2,0,4,0,6,0,.46,0,.66.12.78.62.33,1.32.76,2.62,1.16,3.93C40,6.7,40.68,8.85,41.33,11c1,3.27,2,6.54,3,9.81.81,2.66,1.59,5.34,2.39,8,.15.52.33,1,.48,1.55s.11.59-.44.59Z"/><path class="cls-2" d="M16.12.19A15.24,15.24,0,0,1,26,3.72c.29.23.29.41.05.66C24.71,5.78,23.4,7.19,22.1,8.61c-.26.29-.48.22-.75,0A8,8,0,0,0,18.82,7.4a10.24,10.24,0,0,0-3.69-.34,30.27,30.27,0,0,0-3.75.52A16.36,16.36,0,0,0,4.5,11.1,17.35,17.35,0,0,0,.4,16.2c-.06.12-.11.3-.26.27S0,16.22,0,16.08A16.48,16.48,0,0,1,3.73,6.16,16,16,0,0,1,8.32,2.24,15.52,15.52,0,0,1,16.12.19Z"/><path class="cls-2" d="M73.82.19A15.19,15.19,0,0,1,80.3,1.56a8.22,8.22,0,0,1,4.6,6.6c.08.68.08.72-.6.78-1.73.15-3.46.26-5.2.39A.36.36,0,0,1,78.65,9,5,5,0,0,0,78,7.25a4.78,4.78,0,0,0-2.62-1.88A10.51,10.51,0,0,0,67,6a12.38,12.38,0,0,0-3.53,2.41,8.33,8.33,0,0,0-1.08,1.4c-.07.1-.14.21-.27.19S62,9.83,62,9.72a9.57,9.57,0,0,1,.64-3.56,9.57,9.57,0,0,1,5-4.75A16.94,16.94,0,0,1,73.82.19Z"/></g></g></svg>